# Tiled2Unity generated file. Do not modify by hand.
# Wavefront file for 'level-1_mesh_0004.obj'

# Vertices (Count = 16)
v -6.4 -20.48 0
v -7.68 -20.48 0
v -7.68 -19.2 0
v -6.4 -19.2 0
v -7.68 -20.48 0
v -8.96 -20.48 0
v -8.96 -19.2 0
v -7.68 -19.2 0
v -8.96 -20.48 0
v -10.24 -20.48 0
v -10.24 -19.2 0
v -8.96 -19.2 0
v -10.24 -20.48 0
v -11.52 -20.48 0
v -11.52 -19.2 0
v -10.24 -19.2 0

# Texture cooridinates (Count = 4)
vt 0 0
vt 1 0
vt 1 1
vt 0 1

# Normal
vn 0 0 -1

# Mesh description
g level-1_mesh_0004

# Faces
f 1/1/1 2/2/1 3/3/1 4/4/1
f 5/1/1 6/2/1 7/3/1 8/4/1
f 9/1/1 10/2/1 11/3/1 12/4/1
f 13/1/1 14/2/1 15/3/1 16/4/1

